<svg width="522" height="213" viewBox="0 0 522 213" fill="none" xmlns="http://www.w3.org/2000/svg">
<path d="M0.333344 209.489C0.333344 211.213 1.52725 212.61 3.00001 212.61C4.47277 212.61 5.66668 211.213 5.66668 209.489C5.66668 207.765 4.47277 206.368 3.00001 206.368C1.52725 206.368 0.333344 207.765 0.333344 209.489ZM517 4.09615L522 6.88944V0.132538L517 2.92582V4.09615ZM3.00001 210.074H131.782V208.904H3.00001V210.074ZM212.282 115.863V97.1374H211.282V115.863H212.282ZM291.782 4.09615H517.5V2.92582H291.782V4.09615ZM212.282 97.1374C212.282 45.7522 247.875 4.09615 291.782 4.09615V2.92582C247.323 2.92582 211.282 45.1058 211.282 97.1374H212.282ZM131.782 210.074C176.241 210.074 212.282 167.894 212.282 115.863H211.282C211.282 167.248 175.688 208.904 131.782 208.904V210.074Z" fill="#252134"/>
</svg>
