<svg width="522" height="160" viewBox="0 0 522 160" fill="none" xmlns="http://www.w3.org/2000/svg">
<path d="M0 157.65C0 158.948 1.19467 160 2.66837 160C4.14207 160 5.33674 158.948 5.33674 157.65C5.33674 156.351 4.14207 155.299 2.66837 155.299C1.19467 155.299 0 156.351 0 157.65ZM516.997 2.98468L522 5.08808V0L516.997 2.1034V2.98468ZM2.66837 158.09H131.533V157.209H2.66837V158.09ZM212.084 87.1471V73.0466H211.083V87.1471H212.084ZM291.635 2.98468H517.497V2.1034H291.635V2.98468ZM212.084 73.0466C212.084 34.3525 247.7 2.98468 291.635 2.98468V2.1034C247.147 2.1034 211.083 33.8658 211.083 73.0466H212.084ZM131.533 158.09C176.02 158.09 212.084 126.328 212.084 87.1471H211.083C211.083 125.842 175.467 157.209 131.533 157.209V158.09Z" fill="#252134"/>
</svg>

